<svg xmlns="http://www.w3.org/2000/svg" width="130" height="21" viewBox="0 0 130 21" fill="none">
  <path d="M17.0202 10.4762C17.0202 5.48768 13.5719 1.67285 8.53474 1.67285C3.42374 1.67285 0 5.48768 0 10.4762C0 15.4648 3.42374 19.2787 8.53474 19.2787C9.6196 19.2857 10.6967 19.0951 11.7132 18.716L13.2765 20.9905L15.2574 19.6207L13.8163 17.5414C15.8262 15.9536 17.0202 13.4092 17.0202 10.4762ZM12.4482 15.5861L10.6388 12.9942L8.65872 14.3394L10.346 16.7845C9.75813 16.9545 9.1484 17.0369 8.5365 17.0289C4.77073 17.0289 2.52077 14.1196 2.52077 10.4762C2.52077 6.83285 4.76898 3.92271 8.53474 3.92271C12.2513 3.92271 14.5012 6.83285 14.5012 10.4762C14.5012 12.5546 13.7671 14.3887 12.4465 15.5861H12.4482Z" fill="white" fill-opacity="0.9"/>
  <path d="M27.68 13.0914C27.68 15.1206 26.6249 17.1498 24.3547 17.1498C22.5963 17.1498 21.6889 15.8055 21.6889 14.1421V6.75684H19.293V14.7039C19.293 17.2474 21.2 19.2757 23.7437 19.2757C24.5328 19.2755 25.3088 19.0734 25.9977 18.6887C26.6867 18.304 27.2658 17.7494 27.68 17.0777V19.0348H30.1014V6.75772H27.68V13.0914Z" fill="white" fill-opacity="0.9"/>
  <path d="M35.356 6.75684H32.9346V19.0321H35.356V6.75684Z" fill="white" fill-opacity="0.9"/>
  <path d="M34.1293 1.01001C33.2501 1.01001 32.5889 1.6949 32.5889 2.57497C32.5889 3.45505 33.2492 4.13994 34.1293 4.13994C34.3374 4.14514 34.5444 4.1084 34.738 4.03191C34.9316 3.95542 35.1078 3.84074 35.2562 3.6947C35.4045 3.54867 35.5219 3.37427 35.6014 3.1819C35.6809 2.98953 35.7209 2.78312 35.7189 2.57497C35.7209 2.36683 35.6809 2.16042 35.6014 1.96805C35.5219 1.77568 35.4045 1.60128 35.2562 1.45525C35.1078 1.30921 34.9316 1.19453 34.738 1.11804C34.5444 1.04155 34.3374 1.0048 34.1293 1.01001Z" fill="white" fill-opacity="0.9"/>
  <path d="M43.7772 8.63449C45.366 8.63449 46.6383 9.63677 47.0304 11.1771L49.378 10.7613C48.8407 8.14478 46.3217 6.50684 43.8027 6.50684C40.0862 6.50684 37.5918 9.24553 37.5918 12.8889C37.5918 16.5569 40.0862 19.271 43.8027 19.271C46.3463 19.271 48.8407 17.6331 49.378 15.0166L47.0304 14.6007C46.64 16.1411 45.3678 17.1433 43.7544 17.1433C41.2837 17.1433 40.0123 15.2364 40.0123 12.8889C40.0123 10.5415 41.2819 8.63449 43.7772 8.63449Z" fill="white" fill-opacity="0.9"/>
  <path d="M62.2793 6.75536H59.1246L53.8677 12.0376V1.4248H51.4463V19.0307H53.8677V14.996L55.5057 13.3581L59.712 19.0307H62.646L57.1683 11.8415L62.2793 6.75536Z" fill="white" fill-opacity="0.9"/>
  <g filter="url(#filter0_d_278_3593)">
    <path d="M64.9961 4.16331H67.5151V4.15892H75.8538V1.90906H64.9961V4.16331Z" fill="url(#paint0_linear_278_3593)"/>
  </g>
  <path d="M64.9961 19.0257H67.5151V11.9341H74.8761V9.7467H64.9961V19.0257Z" fill="white" fill-opacity="0.9"/>
  <path d="M83.5017 6.5231C81.8144 6.54771 80.6881 7.28096 79.8335 8.79669V6.74289H77.4121V19.02H79.8335V12.8806C79.8335 9.92206 81.6184 8.40545 84.3088 8.6991V6.54771C84.0421 6.50332 83.7706 6.49504 83.5017 6.5231Z" fill="white" fill-opacity="0.9"/>
  <path d="M90.4156 6.47937C87.8474 6.47937 85.6449 7.94763 85.2053 10.3426L87.5273 10.7347C87.7234 9.41588 88.9218 8.53669 90.2907 8.53669C91.7336 8.53669 93.0542 9.31917 93.0542 10.9826V11.3738C90.4165 11.3738 84.96 11.5207 84.96 15.5061C84.96 17.7313 86.6964 19.2717 88.9948 19.2717C90.9291 19.2717 92.1248 18.5384 93.0542 17.144V19.0255H95.4756V11.125C95.4773 8.16655 93.325 6.47937 90.4156 6.47937ZM93.0533 13.7415C93.0533 15.6001 91.6105 17.2583 89.6542 17.2583C88.4074 17.2583 87.3559 16.6226 87.3559 15.4735C87.3559 12.9793 92.393 13.1753 93.0533 13.1507V13.7415Z" fill="white" fill-opacity="0.9"/>
  <path d="M111.745 6.50687C110.033 6.50687 108.492 7.36233 107.685 9.02576C107.123 7.50915 105.751 6.50687 104.042 6.50687C103.304 6.50384 102.579 6.70563 101.949 7.0898C101.319 7.47397 100.808 8.02545 100.472 8.68288V6.74865H98.0508V19.0284H100.472V12.4731C100.472 10.5661 101.401 8.68288 103.382 8.68288C104.996 8.68288 105.827 9.90584 105.827 11.593V19.0284H108.248V12.4731C108.248 10.5907 109.104 8.68288 111.109 8.68288C112.699 8.68288 113.531 9.90584 113.531 11.593V19.0284H115.951V11.3794C115.951 8.65826 114.459 6.50687 111.745 6.50687Z" fill="white" fill-opacity="0.9"/>
  <path d="M129.999 13.0821C129.999 9.36489 127.774 6.47937 124.056 6.47937C120.364 6.47937 117.968 9.2673 117.968 12.9107C117.968 16.5787 120.438 19.2681 124.13 19.2681C126.673 19.2681 128.654 18.0452 129.73 15.6248L127.432 15.2089C126.771 16.5541 125.622 17.1897 124.13 17.1897C122.003 17.1897 120.438 15.7716 120.315 13.6193H129.975C129.995 13.441 130.003 13.2615 129.999 13.0821ZM120.416 11.737C120.685 9.78075 122.078 8.48393 124.059 8.48393C125.918 8.48393 127.41 9.77987 127.581 11.737H120.416Z" fill="white" fill-opacity="0.9"/>
  <defs>
    <filter id="filter0_d_278_3593" x="63.9961" y="0.909058" width="12.8574" height="4.25427" filterUnits="userSpaceOnUse" color-interpolation-filters="sRGB">
      <feFlood flood-opacity="0" result="BackgroundImageFix"/>
      <feColorMatrix in="SourceAlpha" type="matrix" values="0 0 0 0 0 0 0 0 0 0 0 0 0 0 0 0 0 0 127 0" result="hardAlpha"/>
      <feOffset/>
      <feGaussianBlur stdDeviation="0.5"/>
      <feComposite in2="hardAlpha" operator="out"/>
      <feColorMatrix type="matrix" values="0 0 0 0 0.110551 0 0 0 0 0.987894 0 0 0 0 0.95865 0 0 0 0.5 0"/>
      <feBlend mode="normal" in2="BackgroundImageFix" result="effect1_dropShadow_278_3593"/>
      <feBlend mode="normal" in="SourceGraphic" in2="effect1_dropShadow_278_3593" result="shape"/>
    </filter>
    <linearGradient id="paint0_linear_278_3593" x1="75.8538" y1="2.62632" x2="72.2831" y2="8.09847" gradientUnits="userSpaceOnUse">
      <stop stop-color="#0AABC5"/>
      <stop offset="1" stop-color="#1AC9AA"/>
    </linearGradient>
  </defs>
</svg>