<svg xmlns="http://www.w3.org/2000/svg" width="40" height="40" viewBox="0 0 40 40" fill="none">
<path d="M22.4886 18.8928C22.4886 12.7143 18.2229 7.99998 11.9886 7.99998C5.6643 7.99998 1.42859 12.7143 1.42859 18.8928C1.42859 25.0714 5.6643 29.7871 11.9886 29.7871C13.3313 29.7951 14.6643 29.5594 15.9229 29.0914L17.8572 31.9057L20.3072 30.21L18.5229 27.6386C21.0072 25.6714 22.4886 22.5243 22.4886 18.8928ZM16.83 25.2171L14.5914 22.01L12.1429 23.6743L14.2286 26.7C13.5008 26.91 12.746 27.0111 11.9886 27C7.32859 27 4.54573 23.3986 4.54573 18.89C4.54573 14.3814 7.32859 10.7843 11.9886 10.7843C16.5886 10.7843 19.3729 14.3843 19.3729 18.8928C19.3729 21.4657 18.4643 23.7343 16.83 25.2171Z" fill="white"/>
<path d="M25.1929 11.3843H28.31V11.3786H38.6272V8.5957H25.1929V11.3843Z" fill="#1AC9AA"/>
<path d="M25.1929 29.7771H28.31V21.0014H37.4186V18.2943H25.1929V29.7771Z" fill="white"/>
</svg>